<svg xmlns="http://www.w3.org/2000/svg" xmlns:xlink="http://www.w3.org/1999/xlink"
     viewBox="0 0 100 100">
<g>
<mask id="zuhlkeMask">
  <rect x="-1" y="-1" width="102" height="102" fill="#FFFFFF"/>
  <path fill="#000000" d="M20.5 64.18v2.6H4.32l11.32-14.04H6.18v-2.58h14.8L9.72 64.18"/>
  <path fill="#000000" d="M26.06 59.44c0 2.8.32 5.2 3.76 5.2 3.42 0 3.76-2.4 3.76-5.2v-9.26h2.82v9.58c0 4.42-1.66 7.5-6.58 7.5s-6.58-3.08-6.58-7.5v-9.58h2.84"/>
  <path fill="#000000" d="M28.74 41.28c0 1.06-.86 1.92-1.92 1.92s-1.9-.86-1.9-1.92.84-1.92 1.9-1.92c1.08 0 1.92.86 1.92 1.92"/>
  <path fill="#000000" d="M34.74 41.28c0 1.06-.86 1.92-1.92 1.92s-1.9-.86-1.9-1.92.84-1.92 1.9-1.92c1.08 0 1.92.86 1.92 1.92"/>
  <path fill="#000000" d="M43.34 39.46V52.1l.08.08c1.16-1.6 2.68-2.48 4.74-2.48 4.6 0 5.66 3.32 5.66 7.22v9.88h-2.84v-9.38c0-2.68-.22-5.1-3.5-5.1-3.9 0-4.14 3.6-4.14 6.58v7.9H40.5V39.46"/>
  <path fill="#000000" d="M57.98 39.46h2.84V66.8h-2.84V39.46z"/>
  <path fill="#000000" d="M68.3 56.32l6.04-6.16h3.8l-7.12 7.08 8.46 9.54h-3.76l-7.42-8.42v8.42h-2.84V39.46h2.84"/>
  <path fill="#000000" d="M92.66 61.48c-1.06 1.84-2.56 3.16-4.8 3.16-3.16 0-5.3-2.48-5.34-5.56h12.8c.28-4.96-2.5-9.38-7.74-9.38-5.1 0-7.9 4.06-7.9 8.98 0 4.78 3.12 8.56 7.98 8.56 3.22 0 5.72-1.62 7.3-4.42m-7.34-10.5c2.42 0 4.4 1.94 4.78 4.36h-9.74c.36-2.42 2.56-4.36 4.96-4.36"/>
  <path fill="#000000" d="M9.62 80.3c-.46.92-1.24 1.44-2.3 1.44-1.96 0-2.72-1.68-2.72-3.42 0-1.82.82-3.42 2.8-3.42 1 0 1.78.5 2.18 1.42.1.26.18.52.18.82 0 .26-.12.36-.36.4l-3.84.56c.06 1.14.58 2.6 1.94 2.6.86 0 1.38-.52 1.8-1.22.08-.14.12-.26.3-.26s.24.16.24.32c0 .2-.14.56-.22.76m-1.06-3.26c-.06-.72-.56-1.4-1.34-1.4-1.1 0-1.54.92-1.64 1.88l2.98-.48z"/>
  <path fill="#000000" d="M19.18 81.34c0 .16-.04.24-.22.24h-.66c-.18 0-.22-.04-.22-.24v-4.08c0-.84-.12-1.64-1.2-1.64-.5 0-.98.22-1.16.72-.06.16-.06.44-.06.6v4.4c0 .14-.02.24-.2.24h-.7c-.14 0-.22-.08-.22-.22V77c0-.82-.32-1.44-1.24-1.44-.5 0-.94.2-1.14.7-.08.18-.08.46-.08.66v4.4c0 .18-.06.24-.24.24h-.64c-.18 0-.22-.04-.22-.24v-5.06c0-.36-.02-.52.26-.82.36-.4 1.58-.56 2.08-.56.76 0 1.4.16 1.88.76.56-.6 1.18-.76 1.98-.76 1.3 0 2.04.56 2.04 1.88"/>
  <path fill="#000000" d="M23.14 81.72c-.54 0-.92-.16-1.36-.46v3.04c0 .14-.06.22-.2.22h-.68c-.16 0-.24-.04-.24-.22v-7.62c0-.3-.04-.72.16-.98.38-.58 1.7-.8 2.32-.8 1.94 0 2.94 1.28 2.94 3.12-.02 1.72-.98 3.7-2.94 3.7m-.26-6.12c-.84 0-1.1.32-1.1 1.1v3.84c.4.24.82.42 1.28.42 1.38 0 1.86-1.58 1.86-2.7 0-1.3-.56-2.66-2.04-2.66"/>
  <path fill="#000000" d="M29.78 81.72c-1.92 0-2.9-1.7-2.9-3.42 0-1.68 1.04-3.4 2.9-3.4s2.84 1.8 2.84 3.48c0 1.66-1.04 3.34-2.84 3.34m1.66-3.52c0-1-.52-2.58-1.74-2.58-1.28 0-1.64 1.52-1.64 2.52 0 1.04.42 2.82 1.78 2.82 1.24 0 1.62-1.56 1.62-2.54v-.22z"/>
  <path fill="#000000" d="M41.1 75.42l-1.86 5.96c-.04.12-.06.18-.18.18h-.46c-.18 0-.22 0-.26-.18l-1.24-4.04-1.24 4.04c-.06.18-.06.18-.26.18h-.36c-.16 0-.2-.04-.26-.18l-1.92-5.96c-.04-.08-.06-.16-.06-.22 0-.1.08-.14.18-.14h.7c.2 0 .24.04.3.24l1.38 4.64 1.36-4.64c.06-.26.04-.24.34-.24.14 0 .12.08.16.2L38.86 80l1.32-4.7c.06-.18.06-.24.26-.24h.46c.08 0 .22.02.22.12.04.08.02.16-.02.24"/>
  <path fill="#000000" d="M46.58 80.3c-.46.92-1.24 1.44-2.3 1.44-1.96 0-2.72-1.68-2.72-3.42 0-1.82.82-3.42 2.8-3.42 1 0 1.78.5 2.18 1.42.1.26.18.52.18.82 0 .26-.12.36-.36.4l-3.84.56c.06 1.14.58 2.6 1.94 2.6.86 0 1.38-.52 1.8-1.22.08-.14.12-.26.3-.26s.24.16.24.32c.02.2-.12.56-.22.76m-1.06-3.26c-.06-.72-.56-1.4-1.34-1.4-1.1 0-1.54.92-1.64 1.88l2.98-.48z"/>
  <path fill="#000000" d="M51.06 76.18c-.5 0-.5-.66-1.26-.66-.6 0-.74.38-.74.9v4.94c0 .14-.04.22-.18.22h-.68c-.18 0-.26-.02-.26-.22v-5.24c0-.26 0-.46.18-.66.36-.36 1.64-.54 2.16-.54.5 0 1.3.08 1.3.72-.02.28-.22.54-.52.54"/>
  <path fill="#000000" d="M52.96 73.94c-.4 0-.68-.26-.68-.66s.28-.68.68-.68c.42 0 .66.28.66.7 0 .38-.3.64-.66.64m.54 7.4c0 .18-.02.24-.22.24h-.74c-.14 0-.16-.04-.16-.18v-6.14c0-.16.06-.2.22-.2h.66c.2 0 .24.04.24.24v6.04z"/>
  <path fill="#000000" d="M60.04 81.32c0 .14-.04.26-.2.26h-.66c-.18 0-.26-.02-.26-.22V77.1c0-.26 0-.62-.12-.86-.26-.54-.82-.68-1.36-.68-.44 0-.96.1-1.22.5-.12.18-.14.42-.14.64v4.64c0 .18-.04.26-.22.26h-.7c-.16 0-.2-.08-.2-.24v-5.08c0-.3.02-.54.26-.76.48-.46 1.8-.6 2.42-.6.9 0 1.86.18 2.26 1.1.12.28.12.7.12.98"/>
  <path fill="#000000" d="M61.34 83.62c.02-.02.06-.08.1-.1.04-.04.08-.06.14-.06.48.04.86.32 1.46.32 1.3 0 2.1-.68 2.1-2.08v-.54c-.62.28-1 .66-1.72.66-1.64 0-2.4-1.54-2.4-3.1 0-1.92 1.1-3.82 3.08-3.82.56 0 2.14.28 2.14 1.16v5.86c0 1.72-1.58 2.7-3.08 2.7-.26 0-.72-.08-1.14-.24-.4-.16-.68-.32-.68-.62m2.48-2.86c.26 0 1.34-.2 1.34-.54V76.3c0-.58-.74-.72-1.16-.72-1.38 0-1.84 1.68-1.84 2.84-.02 1.16.38 2.48 1.66 2.48"/>
  <path fill="#000000" d="M71.06 73.94c-.4 0-.68-.26-.68-.66s.3-.68.68-.68c.42 0 .66.28.66.7 0 .38-.3.64-.66.64m.56 7.4c0 .18-.02.24-.22.24h-.74c-.14 0-.16-.04-.16-.18v-6.14c0-.16.04-.2.22-.2h.66c.2 0 .24.04.24.24v6.04z"/>
  <path fill="#000000" d="M78.24 80.32c0 .26-.02.42-.18.62-.44.58-1.62.76-2.32.76-1.96 0-2.96-1.32-2.96-3.2 0-1.78 1.02-3.62 2.98-3.62.5 0 .94.12 1.34.42v-3.14c0-.16.08-.24.24-.24h.64c.16 0 .26.02.26.22m-1.14 3.88c-.36-.3-.72-.46-1.2-.46-1.36 0-1.98 1.48-1.98 2.64 0 1.3.56 2.74 2.08 2.74.74 0 1.12-.24 1.12-1v-3.92z"/>
  <path fill="#000000" d="M84.36 80.3c-.46.92-1.24 1.44-2.3 1.44-1.96 0-2.72-1.68-2.72-3.42 0-1.82.82-3.42 2.8-3.42 1 0 1.78.5 2.18 1.42.1.26.18.52.18.82 0 .26-.12.36-.36.4l-3.84.56c.06 1.14.58 2.6 1.94 2.6.86 0 1.38-.52 1.8-1.22.08-.14.12-.26.3-.26s.24.16.24.32c0 .2-.14.56-.22.76m-1.06-3.26c-.06-.72-.56-1.4-1.34-1.4-1.1 0-1.54.92-1.64 1.88l2.98-.48z"/>
  <path fill="#000000" d="M89.82 80.3c0 .26-.04.56-.18.78-.38.52-1.54.64-2.16.64-1.12 0-2.18-.44-2.18-1.72 0-1.68 2.18-2.1 3.44-2.46v-.64c0-.66-.1-1.34-.94-1.34-.54 0-.86.32-1.06.82-.04.06-.02.12-.06.16-.1.24-.24.38-.5.38-.3 0-.5-.24-.5-.52 0-1.06 1.44-1.5 2.3-1.5 1.36 0 1.88.7 1.88 2.02m-1.14 1.24c-.86.26-2.28.56-2.28 1.7 0 .76.52 1.2 1.28 1.2.64 0 1-.22 1-.9v-2z"/>
  <path fill="#000000" d="M93.08 81.72c-.7 0-1.28-.16-1.78-.66-.2-.2-.4-.48-.4-.76 0-.3.24-.56.54-.56.64 0 .58 1.26 1.72 1.26.56 0 .98-.36.98-.96 0-1.64-3.1-1.22-3.1-3.4 0-1.14.94-1.74 1.98-1.74.64 0 1.34.16 1.74.7.14.16.24.36.24.56 0 .26-.22.48-.48.48-.68 0-.5-1.1-1.5-1.1-.54 0-.96.36-.96.92 0 1.56 3.14 1.12 3.14 3.38.02 1.26-.92 1.88-2.12 1.88"/>
</mask>
<rect width="100" height="100" fill="#FFFFFF" />
<rect x="-1" y="-1" width="102" height="102" fill="#935FA8" mask="url(#zuhlkeMask)" />
</g>
</svg>
